<svg xmlns="http://www.w3.org/2000/svg" width="50.259" height="50.259" viewBox="0 0 50.259 50.259"><defs><style>.a{fill:#f7941d;}</style></defs><path class="a" d="M25.94,29.183H38.91V27.562H25.94V22.7h1.621V21.077H25.94V17.834h9.728V16.213H25.94V7.3a7.29,7.29,0,0,0-13.9-3.072L12,4.232A8.941,8.941,0,0,0,4.864,12.97a8.787,8.787,0,0,0,.517,2.98,10.524,10.524,0,0,0-.872,17.818,8.092,8.092,0,0,0,6.84,12.439c.244,0,.492-.013.748-.038a7.292,7.292,0,0,0,13.843-3.2V34.047h5.674V32.425H25.94ZM24.319,42.964a5.671,5.671,0,0,1-10.969,2.027l-.239-.623-.656.114a6.367,6.367,0,0,1-1.107.1,6.485,6.485,0,1,1,0-12.97V29.994a8.079,8.079,0,0,0-5.828,2.485A8.89,8.89,0,0,1,6.755,17.065l.726-.341-.334-.729a7.23,7.23,0,0,1-.662-3.024,7.316,7.316,0,0,1,4.977-6.911,7.17,7.17,0,0,0,.863,4.885l1.4-.811A5.675,5.675,0,1,1,24.319,7.3Zm0,0" transform="translate(0)"/><path class="a" d="M184,426.432v1.621A4.058,4.058,0,0,0,188.053,424h-1.621A2.435,2.435,0,0,1,184,426.432Zm0,0" transform="translate(-165.355 -381.036)"/><path class="a" d="M65.621,376H64a4.869,4.869,0,0,0,4.864,4.864v-1.621A3.246,3.246,0,0,1,65.621,376Zm0,0" transform="translate(-57.515 -337.9)"/><path class="a" d="M340.16,327.445v-3.392A4.058,4.058,0,0,0,336.106,320H328v1.621h8.106a2.435,2.435,0,0,1,2.432,2.432v3.392a2.432,2.432,0,1,0,1.621,0Zm-.811,3.093a.811.811,0,1,1,.811-.811A.812.812,0,0,1,339.349,330.539Zm0,0" transform="translate(-294.764 -287.575)"/><path class="a" d="M407.3,256a2.429,2.429,0,0,0-2.283,1.621H400v1.621h5.013A2.428,2.428,0,1,0,407.3,256Zm0,3.243a.811.811,0,1,1,.811-.811A.812.812,0,0,1,407.3,259.243Zm0,0" transform="translate(-359.468 -230.06)"/><path class="a" d="M304.362,193.621H288v1.621h16.362a2.432,2.432,0,1,0,0-1.621Zm2.283,0a.811.811,0,1,1-.811.811A.812.812,0,0,1,306.645,193.621Zm0,0" transform="translate(-258.817 -172.545)"/><path class="a" d="M376.106,64.106V60.715a2.432,2.432,0,1,0-1.621,0v3.392a2.435,2.435,0,0,1-2.432,2.432H368V68.16h4.053A4.058,4.058,0,0,0,376.106,64.106Zm-.811-6.485a.811.811,0,1,1-.811.811A.812.812,0,0,1,375.3,57.621Zm0,0" transform="translate(-330.711 -50.326)"/><path class="a" d="M76.518,196.521a4.058,4.058,0,0,0,0,5.732l1.146-1.146a2.432,2.432,0,1,1,3.44-3.44l1.146-1.146a4.058,4.058,0,0,0-5.732,0Zm0,0" transform="translate(-67.7 -175.542)"/><path class="a" d="M148.053,32A4.058,4.058,0,0,0,144,36.053h1.621a2.432,2.432,0,1,1,4.864,0h1.621A4.058,4.058,0,0,0,148.053,32Zm0,0" transform="translate(-129.409 -28.757)"/><path class="a" d="M180.053,148.053A4.058,4.058,0,0,0,176,144v1.621a2.432,2.432,0,0,1,0,4.864v1.621A4.058,4.058,0,0,0,180.053,148.053Zm0,0" transform="translate(-158.166 -129.409)"/><path class="a" d="M136,316.053a4.058,4.058,0,0,0,4.053,4.053v-1.621a2.432,2.432,0,1,1,0-4.864V312A4.058,4.058,0,0,0,136,316.053Zm0,0" transform="translate(-122.219 -280.385)"/></svg>