<svg xmlns="http://www.w3.org/2000/svg" width="50.756" height="50.408" viewBox="0 0 50.756 50.408"><defs><style>.a{fill:#f7941d;}</style></defs><g transform="translate(-1 -1)"><path class="a" d="M49.79,46a8.916,8.916,0,0,0-7.223-5.809l-6.607-.881v-.1h-.177a9.77,9.77,0,0,0,5.828-8.13h.041A3.255,3.255,0,0,0,44.9,27.83V18.967a5.886,5.886,0,0,0-4.47-5.7l-.53-.53a12.3,12.3,0,0,0-14.513-2.146V3.439A2.442,2.442,0,0,0,22.952,1H3.439A2.442,2.442,0,0,0,1,3.439V13.2a2.442,2.442,0,0,0,2.439,2.439h6.936l3.49,4.187a1.921,1.921,0,0,0,3.4-1.229V15.635h3.087a12.235,12.235,0,0,0-1.461,5.808V27.83a3.255,3.255,0,0,0,3.252,3.252h.041a9.77,9.77,0,0,0,5.828,8.13H27.83v.1l-4.065.542V37.822L21.681,37.1a9.806,9.806,0,0,0-.653-1.577l.962-1.984L18.873,30.42l-1.984.962a9.912,9.912,0,0,0-1.577-.653l-.725-2.085H10.178l-.724,2.084a9.806,9.806,0,0,0-1.577.653l-1.984-.962L2.776,33.535l.962,1.984A9.912,9.912,0,0,0,3.085,37.1L1,37.822V42.23l2.084.724a9.806,9.806,0,0,0,.653,1.577l-.962,1.984,3.117,3.117,1.984-.962a9.912,9.912,0,0,0,1.577.653l.725,2.085H51.756ZM29.456,39.7a9.423,9.423,0,0,0,4.878,0v.036L31.9,42.789,29.456,39.74Zm1.076,3.984-3,1-1.18-3.538,1.943-.259Zm4.964-2.8,1.943.259-1.18,3.538-3-1Zm6.156-11.436V26.2a1.626,1.626,0,0,1,0,3.252ZM15.635,14.009v4.584a.3.3,0,0,1-.52.188l-3.977-4.772h-7.7a.813.813,0,0,1-.813-.813V3.439a.813.813,0,0,1,.813-.813H22.952a.813.813,0,0,1,.813.813v8.13h.109a12.408,12.408,0,0,0-2.548,2.548v-.109ZM20.513,27.83A1.628,1.628,0,0,1,22.139,26.2v3.252A1.628,1.628,0,0,1,20.513,27.83Zm1.626-5.691v2.439a3.219,3.219,0,0,0-1.626.452V21.441a10.685,10.685,0,0,1,18.241-7.555l.871.871.241.049a4.255,4.255,0,0,1,3.412,4.161v6.064a3.211,3.211,0,0,0-1.626-.453V22.139h-.813a13.145,13.145,0,0,1-8.18-2.868l-.763-.612-.763.611a13.141,13.141,0,0,1-8.18,2.869Zm1.626,8.13V23.742a14.79,14.79,0,0,0,8.13-3,14.786,14.786,0,0,0,8.13,3v6.527a8.13,8.13,0,1,1-16.261,0ZM11.335,49.782l-.624-1.8-.417-.111a8.064,8.064,0,0,1-1.985-.822l-.374-.217-1.711.829L4.742,46.184l.829-1.711L5.355,44.1a8.14,8.14,0,0,1-.822-1.985l-.11-.416-1.8-.624v-2.1l1.8-.624.111-.417a8.064,8.064,0,0,1,.822-1.985l.217-.374-.829-1.711,1.481-1.481,1.711.829L8.309,33a8.14,8.14,0,0,1,1.985-.822l.417-.111.623-1.8h2.1l.624,1.8.417.111A8.064,8.064,0,0,1,16.457,33l.374.217,1.711-.829,1.481,1.481-.829,1.711.217.374a8.14,8.14,0,0,1,.822,1.985l.111.417,1.8.623v1.1l-.915.122a8.956,8.956,0,0,0-2.394.667,6.595,6.595,0,1,0-4.951,5.477l-1.252,3.443Zm3.6-5.612A4.914,4.914,0,1,1,16.788,42.1,8.906,8.906,0,0,0,14.936,44.17Zm-.58,5.612,1.172-3.223a7.3,7.3,0,0,1,5.91-4.753l3.273-.437L26.5,46.745l5.393-1.8,5.393,1.8,1.791-5.375,3.273.437a7.3,7.3,0,0,1,5.91,4.753l1.172,3.222Z"/><circle class="a" cx="1" cy="1" r="1" transform="translate(27 25.408)"/><circle class="a" cx="1" cy="1" r="1" transform="translate(35 25.408)"/><path class="a" d="M43.383,37H41.756a4.065,4.065,0,1,1-8.13,0H32a5.691,5.691,0,0,0,11.383,0Z" transform="translate(-5.796 -6.731)"/><path class="a" d="M7.439,7A2.439,2.439,0,1,0,9.878,9.439,2.442,2.442,0,0,0,7.439,7Zm0,3.252a.813.813,0,1,1,.813-.813A.813.813,0,0,1,7.439,10.252Z" transform="translate(-0.748 -1.122)"/><path class="a" d="M15.439,7a2.439,2.439,0,1,0,2.439,2.439A2.442,2.442,0,0,0,15.439,7Zm0,3.252a.813.813,0,1,1,.813-.813A.813.813,0,0,1,15.439,10.252Z" transform="translate(-2.244 -1.122)"/><path class="a" d="M25.878,9.439a2.439,2.439,0,1,0-2.439,2.439A2.442,2.442,0,0,0,25.878,9.439Zm-2.439.813a.813.813,0,1,1,.813-.813A.813.813,0,0,1,23.439,10.252Z" transform="translate(-3.739 -1.122)"/></g></svg>