<svg xmlns="http://www.w3.org/2000/svg" width="50.756" height="50.756" viewBox="0 0 50.756 50.756"><defs><style>.a{fill:#fff;}</style></defs><g transform="translate(-2 -2)"><path class="a" d="M47.681,35.905V24.84a4.235,4.235,0,0,0-4.23-4.23h-4.23a4.235,4.235,0,0,0-4.23,4.23V48.527a2.538,2.538,0,0,1-2.538,2.538H19.765a2.538,2.538,0,0,1-2.538-2.538V42.605H29.916a.846.846,0,1,0,0-1.692,1.692,1.692,0,1,1,0-3.384.846.846,0,0,0,.846-.846V6.23A4.235,4.235,0,0,0,26.532,2H4.538A2.538,2.538,0,0,0,2,4.538V39.221a3.384,3.384,0,0,0,3.384,3.384H15.535v5.922a4.235,4.235,0,0,0,4.23,4.23H32.454a4.235,4.235,0,0,0,4.23-4.23V24.84A2.538,2.538,0,0,1,39.221,22.3h4.23a2.538,2.538,0,0,1,2.538,2.538V35.905a5.927,5.927,0,0,0-5.076,5.854v8.459a2.538,2.538,0,0,0,2.538,2.538h6.768a2.538,2.538,0,0,0,2.538-2.538V41.759A5.927,5.927,0,0,0,47.681,35.905ZM20.469,12.528l-.815-1.222H29.07v3.384H19.653l.815-1.222A.846.846,0,0,0,20.469,12.528Zm8.6-6.3V9.613h-11a.846.846,0,0,0-.7,1.315L18.75,13l-1.379,2.068a.846.846,0,0,0,.7,1.315h11V35.838H7.076V3.692H26.532A2.538,2.538,0,0,1,29.07,6.23ZM4.538,3.692h.846V35.838a3.349,3.349,0,0,0-1.692.47V4.538a.846.846,0,0,1,.846-.846ZM3.692,39.221a1.692,1.692,0,0,1,1.692-1.692h21.6a3.378,3.378,0,0,0,0,3.384H5.384A1.692,1.692,0,0,1,3.692,39.221Zm47.373,11a.846.846,0,0,1-.846.846H43.451a.846.846,0,0,1-.846-.846V41.759a4.23,4.23,0,0,1,8.459,0Z"/><path class="a" d="M54,46h1.692v6.768H54Z" transform="translate(-8.011 -6.779)"/></g></svg>