<svg xmlns="http://www.w3.org/2000/svg" width="50.757" height="50.277" viewBox="0 0 50.757 50.277"><defs><style>.a{fill:#f7941d;}</style></defs><g transform="translate(0)"><path class="a" d="M47.788,312.582l-2.762-.789v-.417a5.725,5.725,0,0,0,2.456-4.7v-1.637a5.731,5.731,0,0,0-11.461,0v1.637a5.724,5.724,0,0,0,2.456,4.7v.417l-2.762.79a4.088,4.088,0,0,0-2.15,1.49,4.093,4.093,0,0,0-2.15-1.491l-2.762-.789v-.417a5.725,5.725,0,0,0,2.456-4.7v-1.637a5.731,5.731,0,0,0-11.461,0v1.637a5.724,5.724,0,0,0,2.456,4.7v.417l-2.762.79a4.088,4.088,0,0,0-2.15,1.49,4.093,4.093,0,0,0-2.15-1.491l-2.762-.789v-.417a5.725,5.725,0,0,0,2.456-4.7v-1.637a5.731,5.731,0,0,0-11.461,0v1.637a5.724,5.724,0,0,0,2.456,4.7v.417l-2.762.79A4.111,4.111,0,0,0,0,316.519v2.441H50.756v-2.441a4.113,4.113,0,0,0-2.968-3.937Zm-7.674-.413a5.672,5.672,0,0,0,3.275,0v.241a1.637,1.637,0,0,1-3.275,0Zm-2.456-5.489v-1.637a4.093,4.093,0,0,1,8.187,0v1.637a4.093,4.093,0,0,1-8.187,0Zm-13.917,5.489a5.672,5.672,0,0,0,3.275,0v.241a1.637,1.637,0,0,1-3.275,0Zm-2.456-5.489v-1.637a4.093,4.093,0,0,1,8.187,0v1.637a4.093,4.093,0,0,1-8.187,0ZM7.368,312.169a5.672,5.672,0,0,0,3.275,0v.241a1.637,1.637,0,0,1-3.275,0ZM4.912,306.68v-1.637a4.093,4.093,0,0,1,8.187,0v1.637a4.093,4.093,0,0,1-8.187,0Zm11.461,10.643H1.637v-.8a2.468,2.468,0,0,1,1.781-2.362l2.5-.713a3.252,3.252,0,0,0,6.182,0l2.5.712a2.469,2.469,0,0,1,1.781,2.363Zm16.373,0H18.01v-.8a2.468,2.468,0,0,1,1.781-2.362l2.5-.713a3.252,3.252,0,0,0,6.182,0l2.5.712a2.469,2.469,0,0,1,1.781,2.363Zm16.373,0H34.383v-.8a2.468,2.468,0,0,1,1.781-2.362l2.5-.713a3.252,3.252,0,0,0,6.182,0l2.5.712a2.469,2.469,0,0,1,1.781,2.363Zm0,0" transform="translate(0 -268.683)"/><path class="a" d="M154.642,96.6A10.642,10.642,0,1,0,144,85.955,10.655,10.655,0,0,0,154.642,96.6Zm-9.005-10.642c0-.277.017-.548.042-.819h1.392a1.538,1.538,0,0,1,1.494,1.166l.058.232a3.16,3.16,0,0,0,2.077,2.243,1.535,1.535,0,0,1,1.007,1.088l.058.232a3.172,3.172,0,0,0,3.082,2.406h.255a1.545,1.545,0,0,1,1.231.616l1.056,1.409a9,9,0,0,1-11.752-8.573Zm16.739,4.589-.508-.255a2.721,2.721,0,0,1,1.209-5.153h.53c.024.27.041.542.041.819A8.935,8.935,0,0,1,162.376,90.545Zm-.792-10.32h-.54a3.643,3.643,0,0,0-3.563,2.92,1.459,1.459,0,0,1-2.736.367l-.275-.551a3.448,3.448,0,0,0-3.1-1.917,1.821,1.821,0,0,1-1.637-1.012l-.594-1.186a8.973,8.973,0,0,1,12.447,1.379Zm-13.692-.209.374.748a3.448,3.448,0,0,0,3.1,1.918,1.821,1.821,0,0,1,1.637,1.012l.275.551a3.1,3.1,0,0,0,5.8-.777,2,2,0,0,1,1.957-1.6h1.611A8.946,8.946,0,0,1,163.3,83.5h-.222a4.361,4.361,0,0,0-1.941,8.255l.265.133a9.062,9.062,0,0,1-2.462,1.98l-1.3-1.729a3.189,3.189,0,0,0-2.541-1.271h-.255a1.538,1.538,0,0,1-1.494-1.167l-.058-.231a3.161,3.161,0,0,0-2.077-2.243,1.534,1.534,0,0,1-1.007-1.088l-.058-.232a3.171,3.171,0,0,0-3.082-2.407h-1.085a8.984,8.984,0,0,1,1.906-3.484Zm0,0" transform="translate(-129.264 -67.606)"/><path class="a" d="M220.56,3.134V6.07H222.2V3.134l1.059,1.058,1.158-1.158L221.378,0l-3.035,3.035L219.5,4.192Zm0,0" transform="translate(-196)"/><path class="a" d="M56.88,154.568l-1.058-1.059h4.573v-1.637H55.821l1.058-1.059-1.158-1.158-3.035,3.035,3.035,3.035Zm0,0" transform="translate(-47.296 -134.341)"/><path class="a" d="M368,151.873v1.637h4.573l-1.058,1.058,1.158,1.158,3.035-3.035-3.035-3.035-1.158,1.158,1.058,1.059Zm0,0" transform="translate(-330.342 -134.342)"/><path class="a" d="M331.5,55.985l1.877-1.877v1.3h1.637V51.313h-4.093V52.95h1.3l-1.877,1.877Zm0,0" transform="translate(-296.539 -46.062)"/><path class="a" d="M121.637,54.107l1.877,1.877,1.158-1.158-1.877-1.877h1.3V51.313H120v4.093h1.637Zm0,0" transform="translate(-107.72 -46.062)"/></g></svg>