<svg xmlns="http://www.w3.org/2000/svg" width="50.756" height="50.756" viewBox="0 0 50.756 50.756"><defs><style>.a{fill:#f7941d;}</style></defs><path class="a" d="M48.467,8.327h-10.4a.744.744,0,0,0,0,1.487h10.4a.8.8,0,0,1,.8.8V39.248a.8.8,0,0,1-.8.8H2.289a.8.8,0,0,1-.8-.8V10.617a.8.8,0,0,1,.8-.8H18.625V11.3H3.718a.743.743,0,0,0-.744.744V31.69a.744.744,0,1,0,1.487,0v-18.9H18.625v3.989L15.442,18.3a.749.749,0,0,0-.423.671V31.094a.744.744,0,0,0,.423.671l9.616,4.594a.754.754,0,0,0,.641,0L31.1,33.776a.744.744,0,1,0-.641-1.342l-4.342,2.074V24.031l8.129-3.884V30.625l-1.1.527a.743.743,0,1,0,.641,1.342l1.528-.73a.744.744,0,0,0,.423-.671V18.969a.748.748,0,0,0-.423-.671l-3.183-1.521V12.788H46.3V37.076H4.461V34.862a.744.744,0,0,0-1.487,0v2.957a.743.743,0,0,0,.744.743H47.039a.743.743,0,0,0,.743-.743V12.045a.743.743,0,0,0-.743-.744H32.132V9.814h2.763a.744.744,0,0,0,0-1.487H32.132V6.84H38.8a.743.743,0,0,0,.743-.744V4.333a2.231,2.231,0,1,0-1.487,0v1.02H31.388a.743.743,0,0,0-.744.744V8.327H26.122V4.333a2.231,2.231,0,1,0-1.487,0V8.327H20.112V6.1a.743.743,0,0,0-.744-.744H12.7V4.333a2.231,2.231,0,1,0-1.487,0V6.1a.743.743,0,0,0,.744.744h6.667V8.327H2.289A2.292,2.292,0,0,0,0,10.617V39.248a2.292,2.292,0,0,0,2.289,2.289H18.409a7.086,7.086,0,0,1-2.66,4.758H12.59a2.231,2.231,0,1,0,0,4.461H38.166a2.231,2.231,0,0,0,0-4.461H35.009a7.156,7.156,0,0,1-2.661-4.758H48.467a2.292,2.292,0,0,0,2.289-2.289V10.617A2.292,2.292,0,0,0,48.467,8.327ZM38.8,1.487a.744.744,0,1,1-.743.744A.744.744,0,0,1,38.8,1.487Zm-13.42,0a.744.744,0,1,1-.744.744A.744.744,0,0,1,25.378,1.487Zm-13.42,0a.744.744,0,1,1-.744.744A.744.744,0,0,1,11.958,1.487Zm8.154,11.3h4.523v1.117l-4.523,2.161Zm13.158,6.18-7.891,3.77-7.891-3.77,7.891-3.77ZM16.506,20.148l8.129,3.884V34.509l-8.129-3.884Zm14.139-4.081-4.523-2.161V12.788h4.523Zm0-6.252V11.3H26.122V9.814Zm-6.01,0V11.3H20.112V9.814ZM38.91,48.526a.744.744,0,0,1-.744.743H12.59a.744.744,0,0,1,0-1.487H38.166A.744.744,0,0,1,38.91,48.526ZM32.877,46.3h-15A8.385,8.385,0,0,0,19.9,41.537H30.853A8.385,8.385,0,0,0,32.877,46.3Zm0,0"/></svg>